<svg width="46" height="47" viewBox="0 0 46 47" fill="none" xmlns="http://www.w3.org/2000/svg">
<path d="M15.3346 23.0957C15.3346 18.8642 18.766 15.433 23.0001 15.433C27.2341 15.433 30.6674 18.8642 30.6674 23.0957C30.6674 27.3272 27.2341 30.7584 23.0001 30.7584C18.766 30.7584 15.3346 27.3272 15.3346 23.0957ZM11.1898 23.0957C11.1898 29.6146 16.4773 34.8988 23.0001 34.8988C29.5229 34.8988 34.8103 29.6146 34.8103 23.0957C34.8103 16.5768 29.5229 11.2925 23.0001 11.2925C16.4773 11.2925 11.1898 16.5768 11.1898 23.0957ZM32.5179 10.8245C32.5177 11.37 32.6793 11.9034 32.9824 12.3571C33.2855 12.8109 33.7164 13.1646 34.2207 13.3735C34.7249 13.5825 35.2798 13.6374 35.8153 13.5312C36.3507 13.4249 36.8426 13.1624 37.2287 12.7768C37.6149 12.3912 37.8779 11.8998 37.9847 11.3648C38.0914 10.8298 38.0369 10.2751 37.8282 9.77103C37.6195 9.26692 37.266 8.83598 36.8122 8.53271C36.3584 8.22943 35.8249 8.06745 35.279 8.06723H35.2779C34.5462 8.06757 33.8445 8.35814 33.327 8.87512C32.8095 9.3921 32.5185 10.0932 32.5179 10.8245V10.8245ZM13.708 41.806C11.4656 41.7039 10.2468 41.3306 9.43684 41.0152C8.36301 40.5974 7.59683 40.0998 6.79128 39.2958C5.98573 38.4919 5.48708 37.7269 5.07087 36.6537C4.75513 35.8446 4.38161 34.6261 4.27967 32.3851C4.16817 29.9621 4.1459 29.2343 4.1459 23.0958C4.1459 16.9574 4.17001 16.2316 4.27967 13.8066C4.38179 11.5656 4.75807 10.3495 5.07087 9.53798C5.48892 8.4648 5.98683 7.69908 6.79128 6.89401C7.59573 6.08894 8.36117 5.59059 9.43684 5.17463C10.2464 4.85908 11.4656 4.48578 13.708 4.38391C16.1324 4.27247 16.8607 4.25022 23.0001 4.25022C29.1394 4.25022 29.8685 4.27431 32.2949 4.38391C34.5373 4.48596 35.7541 4.86202 36.5661 5.17463C37.6399 5.59059 38.4061 6.09004 39.2116 6.89401C40.0172 7.69798 40.514 8.4648 40.9321 9.53798C41.2478 10.3471 41.6213 11.5656 41.7233 13.8066C41.8348 16.2316 41.857 16.9574 41.857 23.0958C41.857 29.2343 41.8348 29.9601 41.7233 32.3851C41.6211 34.6261 41.2458 35.8442 40.9321 36.6537C40.514 37.7269 40.0161 38.4926 39.2116 39.2958C38.4072 40.0991 37.6399 40.5974 36.5661 41.0152C35.7565 41.3308 34.5373 41.7041 32.2949 41.806C29.8705 41.9174 29.1422 41.9396 23.0001 41.9396C16.858 41.9396 16.1317 41.9174 13.708 41.806V41.806ZM13.5176 0.24858C11.0691 0.360017 9.39599 0.748026 7.93484 1.31625C6.42162 1.90304 5.14061 2.69028 3.86052 3.96758C2.58043 5.24488 1.79474 6.52715 1.2076 8.03946C0.639034 9.50065 0.250793 11.1718 0.139288 13.6189C0.0259441 16.0698 0 16.8533 0 23.0957C0 29.338 0.0259441 30.1216 0.139288 32.5725C0.250793 35.0197 0.639034 36.6907 1.2076 38.1519C1.79474 39.6633 2.58061 40.947 3.86052 42.2237C5.14043 43.5005 6.42162 44.2866 7.93484 44.8751C9.39875 45.4433 11.0691 45.8313 13.5176 45.9427C15.9713 46.0542 16.754 46.082 23.0001 46.082C29.2462 46.082 30.0302 46.056 32.4826 45.9427C34.9312 45.8313 36.6033 45.4433 38.0653 44.8751C39.5776 44.2866 40.8596 43.5011 42.1396 42.2237C43.4197 40.9464 44.2038 39.6633 44.7926 38.1519C45.3611 36.6907 45.7512 35.0195 45.8609 32.5725C45.9724 30.1197 45.9983 29.338 45.9983 23.0957C45.9983 16.8533 45.9724 16.0698 45.8609 13.6189C45.7494 11.1717 45.3611 9.49973 44.7926 8.03946C44.2038 6.52807 43.4177 5.2469 42.1396 3.96758C40.8616 2.68825 39.5776 1.90304 38.0672 1.31625C36.6033 0.748026 34.9311 0.358179 32.4844 0.24858C30.032 0.137142 29.248 0.109375 23.0019 0.109375C16.7558 0.109375 15.9713 0.135304 13.5176 0.24858Z" fill="#2B4748"/>
<path d="M15.3346 23.0957C15.3346 18.8642 18.766 15.433 23.0001 15.433C27.2341 15.433 30.6674 18.8642 30.6674 23.0957C30.6674 27.3272 27.2341 30.7584 23.0001 30.7584C18.766 30.7584 15.3346 27.3272 15.3346 23.0957ZM11.1898 23.0957C11.1898 29.6146 16.4773 34.8988 23.0001 34.8988C29.5229 34.8988 34.8103 29.6146 34.8103 23.0957C34.8103 16.5768 29.5229 11.2925 23.0001 11.2925C16.4773 11.2925 11.1898 16.5768 11.1898 23.0957ZM32.5179 10.8245C32.5177 11.37 32.6793 11.9034 32.9824 12.3571C33.2855 12.8109 33.7164 13.1646 34.2207 13.3735C34.7249 13.5825 35.2798 13.6374 35.8153 13.5312C36.3507 13.4249 36.8426 13.1624 37.2287 12.7768C37.6149 12.3912 37.8779 11.8998 37.9847 11.3648C38.0914 10.8298 38.0369 10.2751 37.8282 9.77103C37.6195 9.26692 37.266 8.83598 36.8122 8.53271C36.3584 8.22943 35.8249 8.06745 35.279 8.06723H35.2779C34.5462 8.06757 33.8445 8.35814 33.327 8.87512C32.8095 9.3921 32.5185 10.0932 32.5179 10.8245V10.8245ZM13.708 41.806C11.4656 41.7039 10.2468 41.3306 9.43684 41.0152C8.36301 40.5974 7.59683 40.0998 6.79128 39.2958C5.98573 38.4919 5.48708 37.7269 5.07087 36.6537C4.75513 35.8446 4.38161 34.6261 4.27967 32.3851C4.16817 29.9621 4.1459 29.2343 4.1459 23.0958C4.1459 16.9574 4.17001 16.2316 4.27967 13.8066C4.38179 11.5656 4.75807 10.3495 5.07087 9.53798C5.48892 8.4648 5.98683 7.69908 6.79128 6.89401C7.59573 6.08894 8.36117 5.59059 9.43684 5.17463C10.2464 4.85908 11.4656 4.48578 13.708 4.38391C16.1324 4.27247 16.8607 4.25022 23.0001 4.25022C29.1394 4.25022 29.8685 4.27431 32.2949 4.38391C34.5373 4.48596 35.7541 4.86202 36.5661 5.17463C37.6399 5.59059 38.4061 6.09004 39.2116 6.89401C40.0172 7.69798 40.514 8.4648 40.9321 9.53798C41.2478 10.3471 41.6213 11.5656 41.7233 13.8066C41.8348 16.2316 41.857 16.9574 41.857 23.0958C41.857 29.2343 41.8348 29.9601 41.7233 32.3851C41.6211 34.6261 41.2458 35.8442 40.9321 36.6537C40.514 37.7269 40.0161 38.4926 39.2116 39.2958C38.4072 40.0991 37.6399 40.5974 36.5661 41.0152C35.7565 41.3308 34.5373 41.7041 32.2949 41.806C29.8705 41.9174 29.1422 41.9396 23.0001 41.9396C16.858 41.9396 16.1317 41.9174 13.708 41.806V41.806ZM13.5176 0.24858C11.0691 0.360017 9.39599 0.748026 7.93484 1.31625C6.42162 1.90304 5.14061 2.69028 3.86052 3.96758C2.58043 5.24488 1.79474 6.52715 1.2076 8.03946C0.639034 9.50065 0.250793 11.1718 0.139288 13.6189C0.0259441 16.0698 0 16.8533 0 23.0957C0 29.338 0.0259441 30.1216 0.139288 32.5725C0.250793 35.0197 0.639034 36.6907 1.2076 38.1519C1.79474 39.6633 2.58061 40.947 3.86052 42.2237C5.14043 43.5005 6.42162 44.2866 7.93484 44.8751C9.39875 45.4433 11.0691 45.8313 13.5176 45.9427C15.9713 46.0542 16.754 46.082 23.0001 46.082C29.2462 46.082 30.0302 46.056 32.4826 45.9427C34.9312 45.8313 36.6033 45.4433 38.0653 44.8751C39.5776 44.2866 40.8596 43.5011 42.1396 42.2237C43.4197 40.9464 44.2038 39.6633 44.7926 38.1519C45.3611 36.6907 45.7512 35.0195 45.8609 32.5725C45.9724 30.1197 45.9983 29.338 45.9983 23.0957C45.9983 16.8533 45.9724 16.0698 45.8609 13.6189C45.7494 11.1717 45.3611 9.49973 44.7926 8.03946C44.2038 6.52807 43.4177 5.2469 42.1396 3.96758C40.8616 2.68825 39.5776 1.90304 38.0672 1.31625C36.6033 0.748026 34.9311 0.358179 32.4844 0.24858C30.032 0.137142 29.248 0.109375 23.0019 0.109375C16.7558 0.109375 15.9713 0.135304 13.5176 0.24858Z" fill="#2B4748"/>
</svg>
