<svg width="28" height="28" viewBox="0 0 28 28" fill="none" xmlns="http://www.w3.org/2000/svg">
<g filter="url(#filter0_d_208_9)">
<path d="M24.0539 16.7406C24.6334 17.3217 24.9588 18.1089 24.9588 18.9296C24.9588 19.7503 24.6334 20.5375 24.0539 21.1186L23.1439 22.1676C14.9539 30.0086 -4.97607 10.0836 2.74392 1.8676L3.89392 0.867597C4.47569 0.304274 5.25585 -0.00735395 6.06562 0.00013181C6.87539 0.00761757 7.64966 0.333615 8.22091 0.907597C8.25191 0.938597 10.1049 3.3456 10.1049 3.3456C10.6547 3.92323 10.9608 4.69053 10.9595 5.488C10.9582 6.28547 10.6496 7.05177 10.0979 7.6276L8.93991 9.0836C9.58076 10.6407 10.523 12.0558 11.7124 13.2477C12.9019 14.4395 14.3151 15.3846 15.8709 16.0286L17.3359 14.8636C17.9118 14.3123 18.678 14.0041 19.4752 14.003C20.2724 14.0019 21.0394 14.3079 21.6169 14.8576C21.6169 14.8576 24.0229 16.7096 24.0539 16.7406ZM22.6779 18.1946C22.6779 18.1946 20.2849 16.3536 20.2539 16.3226C20.0479 16.1183 19.7695 16.0037 19.4794 16.0037C19.1893 16.0037 18.9109 16.1183 18.7049 16.3226C18.6779 16.3506 16.6609 17.9576 16.6609 17.9576C16.525 18.0658 16.3632 18.1367 16.1916 18.1634C16.0199 18.19 15.8442 18.1715 15.6819 18.1096C13.6664 17.3592 11.8356 16.1843 10.3137 14.6647C8.79185 13.145 7.61432 11.316 6.86092 9.3016C6.79411 9.13705 6.77234 8.95769 6.79782 8.78194C6.8233 8.60619 6.89513 8.44039 7.00592 8.3016C7.00592 8.3016 8.61291 6.2836 8.63991 6.2576C8.84418 6.05158 8.95879 5.77321 8.95879 5.4831C8.95879 5.19298 8.84418 4.91461 8.63991 4.7086C8.60891 4.6786 6.76792 2.2836 6.76792 2.2836C6.55882 2.0961 6.28592 1.99569 6.00517 2.00294C5.72441 2.0102 5.45706 2.12456 5.25792 2.3226L4.10792 3.3226C-1.53407 10.1066 15.7369 26.4196 21.6819 20.8016L22.5929 19.7516C22.8064 19.5539 22.9346 19.2809 22.9505 18.9903C22.9663 18.6997 22.8686 18.4144 22.6779 18.1946Z" fill="#E9E9EA"/>
</g>
<defs>
<filter id="filter0_d_208_9" x="0" y="0" width="27.959" height="27.9606" filterUnits="userSpaceOnUse" color-interpolation-filters="sRGB">
<feFlood flood-opacity="0" result="BackgroundImageFix"/>
<feColorMatrix in="SourceAlpha" type="matrix" values="0 0 0 0 0 0 0 0 0 0 0 0 0 0 0 0 0 0 127 0" result="hardAlpha"/>
<feOffset dx="1" dy="2"/>
<feGaussianBlur stdDeviation="1"/>
<feComposite in2="hardAlpha" operator="out"/>
<feColorMatrix type="matrix" values="0 0 0 0 0 0 0 0 0 0 0 0 0 0 0 0 0 0 0.35 0"/>
<feBlend mode="normal" in2="BackgroundImageFix" result="effect1_dropShadow_208_9"/>
<feBlend mode="normal" in="SourceGraphic" in2="effect1_dropShadow_208_9" result="shape"/>
</filter>
</defs>
</svg>
