<svg width="61" height="61" viewBox="0 0 61 61" fill="none" xmlns="http://www.w3.org/2000/svg">
<path d="M8 52.7809L11.2847 40.5785C8.63567 35.8251 7.79405 30.2782 8.91426 24.9558C10.0345 19.6334 13.0414 14.8924 17.3832 11.6029C21.725 8.3133 27.1105 6.69583 32.5514 7.04726C37.9924 7.39868 43.1238 9.69542 47.004 13.516C50.8842 17.3366 53.253 22.4248 53.6757 27.8469C54.0984 33.269 52.5467 38.6613 49.3052 43.0342C46.0637 47.4072 41.3499 50.4676 36.0289 51.6537C30.7078 52.8399 25.1364 52.0722 20.3369 49.4917L8 52.7809Z" fill="#2A4647"/>
<path d="M8 52.7809L11.2847 40.5785C8.63567 35.8251 7.79405 30.2782 8.91426 24.9558C10.0345 19.6334 13.0414 14.8924 17.3832 11.6029C21.725 8.3133 27.1105 6.69583 32.5514 7.04726C37.9924 7.39868 43.1238 9.69542 47.004 13.516C50.8842 17.3366 53.253 22.4248 53.6757 27.8469C54.0984 33.269 52.5467 38.6613 49.3052 43.0342C46.0637 47.4072 41.3499 50.4676 36.0289 51.6537C30.7078 52.8399 25.1364 52.0722 20.3369 49.4917L8 52.7809ZM20.9318 44.9255L21.6948 45.3769C25.1711 47.4322 29.2314 48.2827 33.2429 47.7959C37.2545 47.3091 40.9919 45.5124 43.8728 42.6857C46.7537 39.8589 48.6162 36.1611 49.1701 32.1683C49.724 28.1755 48.9382 24.1121 46.9351 20.6113C44.932 17.1105 41.8242 14.3689 38.0959 12.8139C34.3676 11.2588 30.2283 10.9776 26.3231 12.014C22.4179 13.0505 18.966 15.3464 16.5056 18.5439C14.0451 21.7415 12.7141 25.661 12.7201 29.6919C12.7168 33.0341 13.6435 36.3116 15.397 39.1597L15.8755 39.9465L14.0391 46.7571L20.9318 44.9255Z" fill="#E2E2EA"/>
<path fill-rule="evenodd" clip-rule="evenodd" d="M39.4498 32.8251C39.0025 32.4653 38.4788 32.212 37.9185 32.0846C37.3583 31.9572 36.7763 31.959 36.2168 32.0899C35.3762 32.4382 34.8331 33.7538 34.29 34.4117C34.1754 34.5694 34.0071 34.68 33.8167 34.7227C33.6262 34.7655 33.4266 34.7374 33.2554 34.6439C30.1781 33.4416 27.5986 31.237 25.936 28.3879C25.7942 28.2101 25.7271 27.9844 25.7488 27.7582C25.7705 27.5321 25.8794 27.3231 26.0524 27.1754C26.6582 26.5772 27.103 25.8364 27.3456 25.0213C27.3995 24.1223 27.193 23.2267 26.7507 22.4415C26.4088 21.3407 25.7582 20.3604 24.8756 19.6167C24.4204 19.4125 23.9157 19.344 23.4224 19.4195C22.929 19.495 22.4681 19.7113 22.0953 20.0423C21.448 20.5994 20.9342 21.2941 20.5918 22.0754C20.2494 22.8568 20.0871 23.7047 20.1167 24.5569C20.1187 25.0355 20.1795 25.512 20.2978 25.9758C20.5981 27.0902 21.0598 28.1548 21.6685 29.136C22.1077 29.8877 22.5869 30.6154 23.104 31.316C24.7845 33.6171 26.897 35.5709 29.3242 37.0689C30.5421 37.8301 31.8439 38.449 33.2037 38.9134C34.6163 39.5521 36.1759 39.7973 37.7169 39.6228C38.5949 39.4903 39.4268 39.1445 40.1394 38.6159C40.852 38.0874 41.4234 37.3922 41.8033 36.5916C42.0266 36.108 42.0943 35.5673 41.9973 35.0437C41.7645 33.9731 40.3291 33.3411 39.4498 32.8251Z" fill="#E2E2EA"/>
</svg>
