<svg width="28" height="26" viewBox="0 0 28 26" fill="none" xmlns="http://www.w3.org/2000/svg">
<g filter="url(#filter0_d_209_38)">
<path d="M20 0H6C4.6744 0.00158786 3.40356 0.528882 2.46622 1.46622C1.52888 2.40356 1.00159 3.6744 1 5L1 17C1.00159 18.3256 1.52888 19.5964 2.46622 20.5338C3.40356 21.4711 4.6744 21.9984 6 22H20C21.3256 21.9984 22.5964 21.4711 23.5338 20.5338C24.4711 19.5964 24.9984 18.3256 25 17V5C24.9984 3.6744 24.4711 2.40356 23.5338 1.46622C22.5964 0.528882 21.3256 0.00158786 20 0V0ZM6 2H20C20.5988 2.00118 21.1835 2.18151 21.679 2.5178C22.1744 2.85409 22.5579 3.33095 22.78 3.887L15.122 11.546C14.5584 12.1073 13.7954 12.4225 13 12.4225C12.2046 12.4225 11.4416 12.1073 10.878 11.546L3.22 3.887C3.44215 3.33095 3.82561 2.85409 4.32105 2.5178C4.81648 2.18151 5.40121 2.00118 6 2V2ZM20 20H6C5.20435 20 4.44129 19.6839 3.87868 19.1213C3.31607 18.5587 3 17.7956 3 17V6.5L9.464 12.96C10.4026 13.8963 11.6743 14.422 13 14.422C14.3257 14.422 15.5974 13.8963 16.536 12.96L23 6.5V17C23 17.7956 22.6839 18.5587 22.1213 19.1213C21.5587 19.6839 20.7956 20 20 20Z" fill="#E9E9EA"/>
</g>
<defs>
<filter id="filter0_d_209_38" x="0" y="0" width="28" height="26" filterUnits="userSpaceOnUse" color-interpolation-filters="sRGB">
<feFlood flood-opacity="0" result="BackgroundImageFix"/>
<feColorMatrix in="SourceAlpha" type="matrix" values="0 0 0 0 0 0 0 0 0 0 0 0 0 0 0 0 0 0 127 0" result="hardAlpha"/>
<feOffset dx="1" dy="2"/>
<feGaussianBlur stdDeviation="1"/>
<feComposite in2="hardAlpha" operator="out"/>
<feColorMatrix type="matrix" values="0 0 0 0 0 0 0 0 0 0 0 0 0 0 0 0 0 0 0.35 0"/>
<feBlend mode="normal" in2="BackgroundImageFix" result="effect1_dropShadow_209_38"/>
<feBlend mode="normal" in="SourceGraphic" in2="effect1_dropShadow_209_38" result="shape"/>
</filter>
</defs>
</svg>
