<svg width="46" height="46" viewBox="0 0 46 46" fill="none" xmlns="http://www.w3.org/2000/svg">
<path d="M15.3346 22.9863C15.3346 18.7548 18.766 15.3236 23.0001 15.3236C27.2341 15.3236 30.6674 18.7548 30.6674 22.9863C30.6674 27.2178 27.2341 30.649 23.0001 30.649C18.766 30.649 15.3346 27.2178 15.3346 22.9863ZM11.1898 22.9863C11.1898 29.5052 16.4773 34.7895 23.0001 34.7895C29.5229 34.7895 34.8103 29.5052 34.8103 22.9863C34.8103 16.4674 29.5229 11.1831 23.0001 11.1831C16.4773 11.1831 11.1898 16.4674 11.1898 22.9863ZM32.5179 10.7151C32.5177 11.2607 32.6793 11.794 32.9824 12.2478C33.2855 12.7015 33.7164 13.0552 34.2207 13.2642C34.7249 13.4731 35.2798 13.528 35.8153 13.4218C36.3507 13.3156 36.8426 13.053 37.2287 12.6674C37.6149 12.2818 37.8779 11.7904 37.9847 11.2554C38.0914 10.7204 38.0369 10.1658 37.8282 9.66165C37.6195 9.15754 37.2659 8.72661 36.8122 8.42333C36.3584 8.12006 35.8249 7.95807 35.279 7.95785H35.2779C34.5462 7.95819 33.8445 8.24876 33.327 8.76574C32.8095 9.28272 32.5185 9.98384 32.5179 10.7151ZM13.708 41.6966C11.4656 41.5945 10.2468 41.2212 9.43684 40.9058C8.36301 40.488 7.59684 39.9904 6.79128 39.1865C5.98573 38.3825 5.48708 37.6175 5.07087 36.5443C4.75513 35.7352 4.38161 34.5168 4.27967 32.2757C4.16817 29.8528 4.1459 29.1249 4.1459 22.9865C4.1459 16.848 4.17001 16.1222 4.27967 13.6973C4.38179 11.4562 4.75807 10.2401 5.07087 9.42861C5.48892 8.35542 5.98683 7.5897 6.79128 6.78463C7.59573 5.97956 8.36117 5.48122 9.43684 5.06526C10.2464 4.7497 11.4656 4.37641 13.708 4.27453C16.1324 4.16309 16.8607 4.14084 23.0001 4.14084C29.1394 4.14084 29.8685 4.16493 32.2949 4.27453C34.5373 4.37659 35.7541 4.75265 36.5661 5.06526C37.6399 5.48122 38.4061 5.98066 39.2116 6.78463C40.0172 7.5886 40.514 8.35542 40.9321 9.42861C41.2478 10.2377 41.6213 11.4562 41.7233 13.6973C41.8348 16.1222 41.857 16.848 41.857 22.9865C41.857 29.1249 41.8348 29.8507 41.7233 32.2757C41.6211 34.5168 41.2458 35.7349 40.9321 36.5443C40.514 37.6175 40.0161 38.3832 39.2116 39.1865C38.4072 39.9897 37.6399 40.488 36.5661 40.9058C35.7565 41.2214 34.5373 41.5947 32.2949 41.6966C29.8705 41.808 29.1422 41.8303 23.0001 41.8303C16.858 41.8303 16.1317 41.808 13.708 41.6966ZM13.5176 0.139205C11.0691 0.250643 9.39599 0.638651 7.93484 1.20687C6.42162 1.79367 5.14061 2.5809 3.86052 3.8582C2.58043 5.1355 1.79474 6.41777 1.2076 7.93009C0.639034 9.39128 0.250793 11.0625 0.139288 13.5095C0.0259441 15.9604 0 16.7439 0 22.9863C0 29.2286 0.0259441 30.0122 0.139288 32.4631C0.250793 34.9103 0.639034 36.5813 1.2076 38.0425C1.79474 39.5539 2.58061 40.8376 3.86052 42.1144C5.14043 43.3911 6.42162 44.1773 7.93484 44.7657C9.39875 45.3339 11.0691 45.7219 13.5176 45.8334C15.9713 45.9448 16.754 45.9726 23.0001 45.9726C29.2462 45.9726 30.0302 45.9466 32.4826 45.8334C34.9312 45.7219 36.6033 45.3339 38.0653 44.7657C39.5776 44.1773 40.8596 43.3917 42.1396 42.1144C43.4197 40.8371 44.2038 39.5539 44.7926 38.0425C45.3611 36.5813 45.7512 34.9101 45.8609 32.4631C45.9724 30.0103 45.9983 29.2286 45.9983 22.9863C45.9983 16.7439 45.9724 15.9604 45.8609 13.5095C45.7494 11.0623 45.3611 9.39036 44.7926 7.93009C44.2038 6.41869 43.4177 5.13753 42.1396 3.8582C40.8616 2.57888 39.5776 1.79367 38.0672 1.20687C36.6033 0.638651 34.9311 0.248804 32.4844 0.139205C30.032 0.0277674 29.248 0 23.0019 0C16.7558 0 15.9713 0.0259285 13.5176 0.139205Z" fill="url(#paint0_radial_209_20)"/>
<path d="M15.3346 22.9863C15.3346 18.7548 18.766 15.3236 23.0001 15.3236C27.2341 15.3236 30.6674 18.7548 30.6674 22.9863C30.6674 27.2178 27.2341 30.649 23.0001 30.649C18.766 30.649 15.3346 27.2178 15.3346 22.9863ZM11.1898 22.9863C11.1898 29.5052 16.4773 34.7895 23.0001 34.7895C29.5229 34.7895 34.8103 29.5052 34.8103 22.9863C34.8103 16.4674 29.5229 11.1831 23.0001 11.1831C16.4773 11.1831 11.1898 16.4674 11.1898 22.9863ZM32.5179 10.7151C32.5177 11.2607 32.6793 11.794 32.9824 12.2478C33.2855 12.7015 33.7164 13.0552 34.2207 13.2642C34.7249 13.4731 35.2798 13.528 35.8153 13.4218C36.3507 13.3156 36.8426 13.053 37.2287 12.6674C37.6149 12.2818 37.8779 11.7904 37.9847 11.2554C38.0914 10.7204 38.0369 10.1658 37.8282 9.66165C37.6195 9.15754 37.2659 8.72661 36.8122 8.42333C36.3584 8.12006 35.8249 7.95807 35.279 7.95785H35.2779C34.5462 7.95819 33.8445 8.24876 33.327 8.76574C32.8095 9.28272 32.5185 9.98384 32.5179 10.7151ZM13.708 41.6966C11.4656 41.5945 10.2468 41.2212 9.43684 40.9058C8.36301 40.488 7.59684 39.9904 6.79128 39.1865C5.98573 38.3825 5.48708 37.6175 5.07087 36.5443C4.75513 35.7352 4.38161 34.5168 4.27967 32.2757C4.16817 29.8528 4.1459 29.1249 4.1459 22.9865C4.1459 16.848 4.17001 16.1222 4.27967 13.6973C4.38179 11.4562 4.75807 10.2401 5.07087 9.42861C5.48892 8.35542 5.98683 7.5897 6.79128 6.78463C7.59573 5.97956 8.36117 5.48122 9.43684 5.06526C10.2464 4.7497 11.4656 4.37641 13.708 4.27453C16.1324 4.16309 16.8607 4.14084 23.0001 4.14084C29.1394 4.14084 29.8685 4.16493 32.2949 4.27453C34.5373 4.37659 35.7541 4.75265 36.5661 5.06526C37.6399 5.48122 38.4061 5.98066 39.2116 6.78463C40.0172 7.5886 40.514 8.35542 40.9321 9.42861C41.2478 10.2377 41.6213 11.4562 41.7233 13.6973C41.8348 16.1222 41.857 16.848 41.857 22.9865C41.857 29.1249 41.8348 29.8507 41.7233 32.2757C41.6211 34.5168 41.2458 35.7349 40.9321 36.5443C40.514 37.6175 40.0161 38.3832 39.2116 39.1865C38.4072 39.9897 37.6399 40.488 36.5661 40.9058C35.7565 41.2214 34.5373 41.5947 32.2949 41.6966C29.8705 41.808 29.1422 41.8303 23.0001 41.8303C16.858 41.8303 16.1317 41.808 13.708 41.6966ZM13.5176 0.139205C11.0691 0.250643 9.39599 0.638651 7.93484 1.20687C6.42162 1.79367 5.14061 2.5809 3.86052 3.8582C2.58043 5.1355 1.79474 6.41777 1.2076 7.93009C0.639034 9.39128 0.250793 11.0625 0.139288 13.5095C0.0259441 15.9604 0 16.7439 0 22.9863C0 29.2286 0.0259441 30.0122 0.139288 32.4631C0.250793 34.9103 0.639034 36.5813 1.2076 38.0425C1.79474 39.5539 2.58061 40.8376 3.86052 42.1144C5.14043 43.3911 6.42162 44.1773 7.93484 44.7657C9.39875 45.3339 11.0691 45.7219 13.5176 45.8334C15.9713 45.9448 16.754 45.9726 23.0001 45.9726C29.2462 45.9726 30.0302 45.9466 32.4826 45.8334C34.9312 45.7219 36.6033 45.3339 38.0653 44.7657C39.5776 44.1773 40.8596 43.3917 42.1396 42.1144C43.4197 40.8371 44.2038 39.5539 44.7926 38.0425C45.3611 36.5813 45.7512 34.9101 45.8609 32.4631C45.9724 30.0103 45.9983 29.2286 45.9983 22.9863C45.9983 16.7439 45.9724 15.9604 45.8609 13.5095C45.7494 11.0623 45.3611 9.39036 44.7926 7.93009C44.2038 6.41869 43.4177 5.13753 42.1396 3.8582C40.8616 2.57888 39.5776 1.79367 38.0672 1.20687C36.6033 0.638651 34.9311 0.248804 32.4844 0.139205C30.032 0.0277674 29.248 0 23.0019 0C16.7558 0 15.9713 0.0259285 13.5176 0.139205Z" fill="url(#paint1_radial_209_20)"/>
<defs>
<radialGradient id="paint0_radial_209_20" cx="0" cy="0" r="1" gradientUnits="userSpaceOnUse" gradientTransform="translate(6.1114 46.1898) scale(60.0493 60.0133)">
<stop offset="0.09" stop-color="#FA8F21"/>
<stop offset="0.78" stop-color="#D82D7E"/>
</radialGradient>
<radialGradient id="paint1_radial_209_20" cx="0" cy="0" r="1" gradientUnits="userSpaceOnUse" gradientTransform="translate(27.8971 48.2493) scale(47.3272 47.2988)">
<stop offset="0.64" stop-color="#8C3AAA" stop-opacity="0"/>
<stop offset="1" stop-color="#8C3AAA"/>
</radialGradient>
</defs>
</svg>
