<svg width="56" height="46" viewBox="0 0 56 46" fill="none" xmlns="http://www.w3.org/2000/svg">
<path d="M54.9829 5.57836C53.1964 6.34721 51.3182 6.88259 49.3949 7.17128C50.2941 7.01712 51.6172 5.39851 52.1439 4.74336C52.9441 3.75512 53.5539 2.62697 53.9424 1.41621C53.9424 1.32629 54.0323 1.19783 53.9424 1.1336C53.8971 1.10886 53.8463 1.0959 53.7946 1.0959C53.743 1.0959 53.6922 1.10886 53.6469 1.1336C51.5584 2.2646 49.3356 3.12781 47.0312 3.70282C46.9508 3.72736 46.8654 3.72956 46.7839 3.70919C46.7024 3.68882 46.628 3.64665 46.5687 3.58721C46.3893 3.37362 46.1962 3.17193 45.9906 2.98344C45.0507 2.14131 43.9843 1.45207 42.8305 0.940907C41.2729 0.301912 39.5906 0.0251766 37.9104 0.131601C36.2801 0.23456 34.6885 0.671829 33.2344 1.41621C31.8026 2.20101 30.5441 3.26719 29.5347 4.55067C28.473 5.8717 27.7064 7.40479 27.2867 9.04681C26.9405 10.6087 26.9013 12.223 27.1711 13.7999C27.1711 14.0696 27.1711 14.1082 26.9398 14.0696C17.7805 12.7208 10.2656 9.47073 4.12511 2.49529C3.85535 2.18698 3.71404 2.18698 3.49565 2.49529C0.82366 6.55466 2.12112 12.9777 5.46111 16.1507C5.91073 16.5746 6.37319 16.9857 6.86134 17.3711C5.32997 17.2624 3.83601 16.8474 2.46796 16.1507C2.21104 15.9837 2.06973 16.0736 2.05689 16.3819C2.02047 16.8094 2.02047 17.2391 2.05689 17.6666C2.32493 19.715 3.13221 21.6555 4.39617 23.2896C5.66013 24.9237 7.33542 26.1928 9.25072 26.9672C9.71762 27.1671 10.2041 27.3178 10.7023 27.4168C9.28466 27.6959 7.83067 27.7393 6.39888 27.5452C6.09057 27.481 5.97496 27.648 6.09057 27.9435C7.97895 33.0819 12.0769 34.6491 15.0829 35.5227C15.4939 35.5869 15.905 35.5869 16.3675 35.6897C16.3675 35.6897 16.3675 35.6897 16.2904 35.7668C15.404 37.3854 11.8199 38.4773 10.1756 39.0425C7.17436 40.1206 3.97444 40.5326 0.797968 40.25C0.296969 40.173 0.181354 40.1858 0.0528925 40.25C-0.0755687 40.3143 0.0528925 40.4556 0.1942 40.584C0.836506 41.008 1.47881 41.3805 2.14681 41.7402C4.13545 42.8249 6.23784 43.6865 8.41572 44.3094C19.6946 47.4182 32.3866 45.1316 40.8522 36.7174C47.5065 30.1145 49.8445 21.0066 49.8445 11.8858C49.8445 11.539 50.2684 11.3334 50.5125 11.1536C52.196 9.84185 53.6802 8.29273 54.9187 6.55466C55.1332 6.29558 55.2431 5.96571 55.227 5.62974V5.62974C55.227 5.43705 55.227 5.47559 54.9829 5.57836Z" fill="#E9E9EA"/>
</svg>
