<svg width="25" height="29" viewBox="0 0 25 29" fill="none" xmlns="http://www.w3.org/2000/svg">
<g filter="url(#filter0_d_209_41)">
<path d="M11.0547 6.00171C10.2636 6.00171 9.49021 6.2363 8.83241 6.67583C8.17461 7.11536 7.66192 7.74007 7.35917 8.47097C7.05642 9.20188 6.97721 10.0061 7.13155 10.7821C7.28589 11.558 7.66685 12.2707 8.22626 12.8301C8.78567 13.3895 9.4984 13.7705 10.2743 13.9249C11.0503 14.0792 11.8545 14 12.5854 13.6972C13.3163 13.3945 13.941 12.8818 14.3806 12.224C14.8201 11.5662 15.0547 10.7928 15.0547 10.0017C15.0547 8.94084 14.6333 7.92343 13.8831 7.17328C13.133 6.42314 12.1156 6.00171 11.0547 6.00171ZM11.0547 12.0017C10.6591 12.0017 10.2724 11.8844 9.94355 11.6646C9.61465 11.4449 9.35831 11.1325 9.20693 10.7671C9.05556 10.4016 9.01595 9.99949 9.09312 9.61153C9.17029 9.22357 9.36077 8.8672 9.64048 8.5875C9.92018 8.30779 10.2765 8.11731 10.6645 8.04014C11.0525 7.96297 11.4546 8.00257 11.8201 8.15395C12.1855 8.30533 12.4979 8.56167 12.7176 8.89057C12.9374 9.21947 13.0547 9.60615 13.0547 10.0017C13.0547 10.5321 12.844 11.0408 12.4689 11.4159C12.0938 11.791 11.5851 12.0017 11.0547 12.0017Z" fill="#E9E9EA"/>
<path d="M11.055 24.002C10.2129 24.0063 9.38211 23.8088 8.63207 23.4261C7.88202 23.0433 7.2346 22.4864 6.744 21.802C2.933 16.545 1 12.593 1 10.055C1 7.38825 2.05936 4.83072 3.94504 2.94504C5.83072 1.05936 8.38825 0 11.055 0C13.7218 0 16.2793 1.05936 18.165 2.94504C20.0506 4.83072 21.11 7.38825 21.11 10.055C21.11 12.593 19.177 16.545 15.366 21.802C14.8754 22.4864 14.228 23.0433 13.4779 23.4261C12.7279 23.8088 11.8971 24.0063 11.055 24.002V24.002ZM11.055 2.183C8.96742 2.18538 6.96602 3.01573 5.48987 4.49187C4.01373 5.96802 3.18338 7.96942 3.181 10.057C3.181 12.067 5.074 15.784 8.51 20.523C8.80169 20.9248 9.18437 21.2518 9.62671 21.4773C10.0691 21.7028 10.5585 21.8203 11.055 21.8203C11.5515 21.8203 12.0409 21.7028 12.4833 21.4773C12.9256 21.2518 13.3083 20.9248 13.6 20.523C17.036 15.784 18.929 12.067 18.929 10.057C18.9266 7.96942 18.0963 5.96802 16.6201 4.49187C15.144 3.01573 13.1426 2.18538 11.055 2.183V2.183Z" fill="#E9E9EA"/>
</g>
<defs>
<filter id="filter0_d_209_41" x="0" y="0" width="24.1104" height="28.0021" filterUnits="userSpaceOnUse" color-interpolation-filters="sRGB">
<feFlood flood-opacity="0" result="BackgroundImageFix"/>
<feColorMatrix in="SourceAlpha" type="matrix" values="0 0 0 0 0 0 0 0 0 0 0 0 0 0 0 0 0 0 127 0" result="hardAlpha"/>
<feOffset dx="1" dy="2"/>
<feGaussianBlur stdDeviation="1"/>
<feComposite in2="hardAlpha" operator="out"/>
<feColorMatrix type="matrix" values="0 0 0 0 0 0 0 0 0 0 0 0 0 0 0 0 0 0 0.35 0"/>
<feBlend mode="normal" in2="BackgroundImageFix" result="effect1_dropShadow_209_41"/>
<feBlend mode="normal" in="SourceGraphic" in2="effect1_dropShadow_209_41" result="shape"/>
</filter>
</defs>
</svg>
