<svg width="56" height="46" viewBox="0 0 56 46" fill="none" xmlns="http://www.w3.org/2000/svg">
<path d="M54.9829 5.46898C53.1964 6.23783 51.3182 6.77322 49.3949 7.0619C50.2941 6.90775 51.6172 5.28914 52.1439 4.63399C52.9441 3.64575 53.5539 2.5176 53.9424 1.30684C53.9424 1.21692 54.0323 1.08845 53.9424 1.02422C53.8971 0.999488 53.8463 0.986526 53.7946 0.986526C53.743 0.986526 53.6922 0.999488 53.6469 1.02422C51.5584 2.15523 49.3356 3.01844 47.0312 3.59345C46.9508 3.61799 46.8654 3.62019 46.7839 3.59982C46.7024 3.57945 46.628 3.53728 46.5687 3.47783C46.3893 3.26424 46.1962 3.06256 45.9906 2.87407C45.0507 2.03194 43.9843 1.34269 42.8305 0.831532C41.2729 0.192537 39.5906 -0.0841984 37.9104 0.0222263C36.2801 0.125185 34.6885 0.562454 33.2344 1.30684C31.8026 2.09164 30.5441 3.15781 29.5347 4.44129C28.473 5.76233 27.7064 7.29541 27.2867 8.93744C26.9405 10.4993 26.9013 12.1136 27.1711 13.6905C27.1711 13.9603 27.1711 13.9988 26.9398 13.9603C17.7805 12.6114 10.2656 9.36136 4.12511 2.38591C3.85535 2.07761 3.71404 2.07761 3.49565 2.38591C0.82366 6.44529 2.12112 12.8684 5.46111 16.0413C5.91073 16.4653 6.37319 16.8763 6.86134 17.2617C5.32997 17.153 3.83601 16.738 2.46796 16.0413C2.21104 15.8743 2.06973 15.9643 2.05689 16.2726C2.02047 16.7 2.02047 17.1298 2.05689 17.5572C2.32493 19.6056 3.13221 21.5461 4.39617 23.1802C5.66013 24.8144 7.33542 26.0835 9.25072 26.8578C9.71762 27.0578 10.2041 27.2085 10.7023 27.3074C9.28466 27.5865 7.83067 27.6299 6.39888 27.4359C6.09057 27.3716 5.97496 27.5386 6.09057 27.8341C7.97895 32.9725 12.0769 34.5398 15.0829 35.4133C15.4939 35.4775 15.905 35.4775 16.3675 35.5803C16.3675 35.5803 16.3675 35.5803 16.2904 35.6574C15.404 37.276 11.8199 38.3679 10.1756 38.9331C7.17436 40.0112 3.97444 40.4232 0.797968 40.1407C0.296969 40.0636 0.181354 40.0764 0.0528925 40.1407C-0.0755687 40.2049 0.0528925 40.3462 0.1942 40.4747C0.836506 40.8986 1.47881 41.2711 2.14681 41.6308C4.13545 42.7155 6.23784 43.5771 8.41572 44.2001C19.6946 47.3088 32.3866 45.0222 40.8522 36.608C47.5065 30.0051 49.8445 20.8972 49.8445 11.7764C49.8445 11.4296 50.2684 11.224 50.5125 11.0442C52.196 9.73247 53.6802 8.18336 54.9187 6.44529C55.1332 6.18621 55.2431 5.85633 55.227 5.52037V5.52037C55.227 5.32768 55.227 5.36621 54.9829 5.46898Z" fill="#2B4748"/>
</svg>
